<svg data-name="Layer 1" xmlns="http://www.w3.org/2000/svg" xmlns:xlink="http://www.w3.org/1999/xlink" width="" height=""><defs><linearGradient id="a" x1="" y1="" x2="" y2="" gradientTransform="translate(-)" gradientUnits="userSpaceOnUse"><stop offset="0" stop-color="gray" stop-opacity=".25"/><stop offset=".54" stop-color="gray" stop-opacity=".12"/><stop offset="1" stop-color="gray" stop-opacity=".1"/></linearGradient><linearGradient id="b" x1="" y1="" x2="" y2="" xlink:href="#a"/></defs><path d="M c- - - S   45C310   9.1  c--- 2- - -  8 263  33  49.2  75s   118.3c- 46- - - - - -        168  243- - 51.3- - -37 .24 232.8  66    198- - -35 - -28.4 - 43.2-q18.3- -c- 13.4- - ----28.3-------s- -222.6 " fill="#00c7fa" opacity=".1"/><ellipse cx="" cy="" rx="" ry="" fill="#00c7fa" opacity=".1"/><path d="M c- 0----S   s   - - zm0-c- 0- - s    - -S   z" fill="#fff"/><path d="M c-88 0--71.6--159.6s-159.6 -159.6 159.6 71.6 159.6 159.6-71.6 159.6-159.6 159.6zm0-317.2c- 0- 70.7- 157.6s70.7 157.6  157.6 157.6-70.7 157.6-157.6--157.6-157.6-157.6z" fill="#fff"/><path d="M a110 110 0 1 1 110-110   0 0 1-110 110zm0-218a108 108 0 1 0 108 108   0 0 0-108-108z" fill="#fff"/><ellipse cx="" cy="" rx="" ry="" fill="#00c7fa" opacity=".1"/><ellipse cx="" cy="" rx="" ry="" fill="#00c7fa" opacity=".1"/><g opacity=".1"><path d="M Ha  0 0 0-13.4 13.4v162a  0 0 0 13.4 13.4hs - c0 0   -ha  0 0 0 13.4-13.4v-162a  0 0 0-13.4-13.4z"/><g opacity=".2"><rect x="" y="" width="207.7" height="" rx="" ry=""/><rect x="" y="369.3" width="207.7" height="" rx="" ry=""/><rect x="" y="" width="" height="" rx="" ry=""/><rect x="" y="" width="" height="" rx="" ry=""/></g></g><path d="M 268.6Ha  0 0 0-13.4 13.4v162a  0 0 0 13.4 13.4hs - c0 0   -hA  0 0 0 341.5 444V282a  0 0 0--13.4z" fill="#fff"/><g opacity=".2" fill="#00c7fa"><rect x="" y="311.6" width="207.7" height="" rx="" ry=""/><rect x="" y="" width="207.7" height="" rx="" ry=""/><rect x="" y="" width="" height="" rx="" ry=""/><rect x="" y="" width="" height="" rx="" ry=""/></g></svg>