<svg data-name="Layer 1" xmlns="http://www.w3.org/2000/svg" xmlns:xlink="http://www.w3.org/1999/xlink" width="1077.87" height="813.02"><defs><linearGradient id="a" x1="975.77" y1="484.92" x2="975.77" y2="87.89" gradientTransform="translate(-77.03)" gradientUnits="userSpaceOnUse"><stop offset="0" stop-color="gray" stop-opacity=".25"/><stop offset=".54" stop-color="gray" stop-opacity=".12"/><stop offset="1" stop-color="gray" stop-opacity=".1"/></linearGradient><linearGradient id="b" x1="649.11" y1="832.85" x2="649.11" y2="382.11" xlink:href="#a"/></defs><path d="M663.83 111.35c-46.25 39.26-106.24 36.72-158.81 16.29S404.16 70.85 352.94 45C310 23.33 264.94 9.1 219.33 2.77c-65.28-9.06-138.18 2-183.66 65.44-50.65 70.68-46.76 198.16 8 263 27.87 33 64.36 49.2 96.18 75s61.29 68.56 58.58 118.3c-2.51 46-31.68 81.37-61.87 103.54-23.33 17.13-52.06 35.84-54.87 71.33-2.72 34.33 21.44 61.24 44.51 76.54 75.26 49.91 168 49.43 243-1.26 26.74-18.09 51.3-42.15 79.35-56.23 73.65-37 154.81.24 232.8 13.87 66 11.53 133.69 5.55 198-17.48 38.62-13.83 77.39-35 104.52-74.36 19.57-28.4 31.76-64.35 43.2-99.85q18.3-56.77 35.19-114.36c6.75-23.05 13.4-46.54 15.15-71.19 3.16-44.68-10.16-88.85-28.3-126.55-43.07-89.53-115.61-152.48-194.17-168.47s-161.67 15.24-222.6 83.58" fill="#00c7fa" opacity=".1"/><ellipse cx="489.56" cy="532.53" rx="226.98" ry="10.36" fill="#00c7fa" opacity=".1"/><path d="M481.94 489.75c-113.47 0-205.78-92.31-205.78-205.78S368.44 78.19 481.94 78.19s205.75 92.32 205.75 205.78-92.32 205.78-205.75 205.78zm0-409.56c-112.37 0-203.78 91.42-203.78 203.78s91.38 203.78 203.78 203.78 203.78-91.42 203.78-203.78S594.27 80.19 481.94 80.19z" fill="#fff"/><path d="M481.94 443.57c-88 0-159.61-71.6-159.61-159.6s71.61-159.6 159.61-159.6 159.6 71.6 159.6 159.6-71.6 159.6-159.6 159.6zm0-317.2c-86.91 0-157.61 70.7-157.61 157.6s70.7 157.6 157.61 157.6 157.6-70.7 157.6-157.6-70.73-157.6-157.6-157.6z" fill="#fff"/><path d="M481.94 393.97a110 110 0 1 1 110-110 110.13 110.13 0 0 1-110 110zm0-218a108 108 0 1 0 108 108 108.13 108.13 0 0 0-108-108z" fill="#fff"/><ellipse cx="979.99" cy="403.16" rx="14.27" ry="4.72" fill="#00c7fa" opacity=".1"/><ellipse cx="178.55" cy="651.82" rx="84.04" ry="13.79" fill="#00c7fa" opacity=".1"/><g opacity=".1"><path d="M325.87 269.72H69.48a13.44 13.44 0 0 0-13.4 13.4v162a13.44 13.44 0 0 0 13.4 13.4h201.13s5.21 27.66-11.91 30.64c0 0 38.34 2.75 31.64-30.64h35.53a13.44 13.44 0 0 0 13.4-13.4v-162a13.44 13.44 0 0 0-13.4-13.4z"/><g opacity=".2"><rect x="93.82" y="312.72" width="207.7" height="12.66" rx="5.67" ry="5.67"/><rect x="93.82" y="369.3" width="207.7" height="12.66" rx="5.67" ry="5.67"/><rect x="93.82" y="397.58" width="174.18" height="12.66" rx="5.67" ry="5.67"/><rect x="93.82" y="341.01" width="90.06" height="12.66" rx="5.67" ry="5.67"/></g></g><path d="M328.11 268.6H71.71a13.44 13.44 0 0 0-13.4 13.4v162a13.44 13.44 0 0 0 13.4 13.4h201.13s5.22 27.66-11.91 30.63c0 0 38.34 2.75 31.64-30.63h35.54A13.43 13.43 0 0 0 341.5 444V282a13.43 13.43 0 0 0-13.39-13.4z" fill="#fff"/><g opacity=".2" fill="#00c7fa"><rect x="96.06" y="311.6" width="207.7" height="12.66" rx="5.67" ry="5.67"/><rect x="96.06" y="368.18" width="207.7" height="12.66" rx="5.67" ry="5.67"/><rect x="96.06" y="396.47" width="174.18" height="12.66" rx="5.67" ry="5.67"/><rect x="96.06" y="339.89" width="90.06" height="12.66" rx="5.67" ry="5.67"/></g></svg>